<svg width="20" height="18" viewBox="0 0 20 18" fill="none" xmlns="http://www.w3.org/2000/svg">
<g clip-path="url(#clip0_30_415)">
<path fill-rule="evenodd" clip-rule="evenodd" d="M0.991802 9.05025C0.991802 13.5248 4.36142 17.2455 8.76844 18V11.4998H6.43545V9H8.76844V6.99975C8.76844 4.74975 10.2717 3.50025 12.3978 3.50025C13.0713 3.50025 13.7976 3.6 14.4711 3.69975V6H13.2789C12.1381 6 11.8791 6.54975 11.8791 7.25025V9H14.3676L13.9531 11.4998H11.8791V18C16.2861 17.2455 19.6557 13.5255 19.6557 9.05025C19.6557 4.0725 15.4564 0 10.3238 0C5.19119 0 0.991802 4.0725 0.991802 9.05025Z" fill="white"/>
</g>
<defs>
<clipPath id="clip0_30_415">
<rect width="18.6639" height="18" fill="white" transform="translate(0.991802)"/>
</clipPath>
</defs>
</svg>
