<svg width="23" height="22" viewBox="0 0 23 22" fill="none" xmlns="http://www.w3.org/2000/svg">
<path d="M11.4057 8.31233C9.77062 8.31233 8.43624 9.59925 8.43624 11.1762C8.43624 12.7532 9.77062 14.0401 11.4057 14.0401C13.0409 14.0401 14.3752 12.7532 14.3752 11.1762C14.3752 9.59925 13.0409 8.31233 11.4057 8.31233ZM20.312 11.1762C20.312 9.99026 20.3232 8.81507 20.2541 7.63128C20.185 6.25628 19.8598 5.03597 18.8172 4.0305C17.7725 3.02288 16.5094 2.71136 15.0836 2.64476C13.854 2.57815 12.6354 2.5889 11.408 2.5889C10.1783 2.5889 8.95974 2.57815 7.73229 2.64476C6.30657 2.71136 5.04125 3.02503 3.99869 4.0305C2.95391 5.03811 2.63089 6.25628 2.56184 7.63128C2.49278 8.81722 2.50392 9.99241 2.50392 11.1762C2.50392 12.36 2.49278 13.5373 2.56184 14.7211C2.63089 16.0961 2.95614 17.3164 3.99869 18.3219C5.04347 19.3295 6.30657 19.641 7.73229 19.7076C8.96197 19.7742 10.1805 19.7635 11.408 19.7635C12.6376 19.7635 13.8562 19.7742 15.0836 19.7076C16.5094 19.641 17.7747 19.3274 18.8172 18.3219C19.862 17.3143 20.185 16.0961 20.2541 14.7211C20.3254 13.5373 20.312 12.3621 20.312 11.1762V11.1762ZM11.4057 15.5826C8.87732 15.5826 6.83676 13.6147 6.83676 11.1762C6.83676 8.73772 8.87732 6.76976 11.4057 6.76976C13.9342 6.76976 15.9747 8.73772 15.9747 11.1762C15.9747 13.6147 13.9342 15.5826 11.4057 15.5826ZM16.1618 7.61839C15.5715 7.61839 15.0948 7.15862 15.0948 6.58929C15.0948 6.01995 15.5715 5.56019 16.1618 5.56019C16.7522 5.56019 17.2289 6.01995 17.2289 6.58929C17.2291 6.72448 17.2016 6.85837 17.148 6.98331C17.0945 7.10824 17.0159 7.22176 16.9168 7.31735C16.8176 7.41294 16.6999 7.48874 16.5704 7.5404C16.4409 7.59206 16.302 7.61856 16.1618 7.61839V7.61839Z" fill="white"/>
</svg>
